<svg xmlns="http://www.w3.org/2000/svg" xmlns:xlink="http://www.w3.org/1999/xlink" version="1.1" width="256" height="256" viewBox="0 0 256 256" xml:space="preserve">
<desc>Created with Fabric.js 1.7.22</desc>
<defs>
</defs>
<g transform="translate(128 128) scale(1.21 1.21)" style="">
	<g style="stroke: none; stroke-width: 0; stroke-dasharray: none; stroke-linecap: butt; stroke-linejoin: miter; stroke-miterlimit: 10; fill: none; fill-rule: nonzero; opacity: 1;" transform="translate(-104.85 -104.85000000000001) scale(2.33 2.33)" >
	<path d="M 61.345 50.958 V 43.77 l -0.9 -5.779 l 0.9 -5.779 V 21.267 V 6.128 c 0 -3.37 -2.757 -6.128 -6.127 -6.128 h 0 c -3.37 0 -6.128 2.757 -6.128 6.128 v 15.063 v 11.021 l 0.9 5.779 l -0.9 5.779 v 7.188 v 4.369 l 0.9 5.922 l -0.9 5.618 c 0 0.006 0 0.012 0 0.017 c -0.005 3.345 -1.473 6.364 -3.795 8.448 c -1.023 0.918 -2.213 2.555 -3.516 3.058 c -1.265 0.488 -2.637 -0.144 -4.069 -0.144 h 0 c -3.129 0 -5.974 -1.28 -8.037 -3.343 c -1.052 -1.052 -2.801 -2.308 -3.38 -3.701 c -0.556 -1.338 0.037 -2.803 0.037 -4.336 v -11.54 l -0.9 -5.857 c 0 -3.37 -1.857 -5.228 -5.228 -5.228 h 0 c -3.37 0 -5.228 1.857 -5.228 5.228 l -0.9 5.857 v 11.037 c 0 0.174 0.002 0.348 0.006 0.522 c 0.083 3.806 1.978 7.397 3.673 10.564 c 1.183 2.21 1.807 4.213 3.601 5.938 C 25.61 87.478 31.38 90 37.711 90 h 0 c 3.114 0 6.093 -1.511 8.823 -2.618 c 2.818 -1.143 5.371 -1.916 7.532 -3.994 c 4.364 -4.196 7.133 -10.041 7.275 -16.503 c 0.004 -0.173 0.006 -0.346 0.006 -0.52 l -0.9 -4.853 l 0.9 -6.185 V 50.958" style="stroke: none; stroke-width: 1; stroke-dasharray: none; stroke-linecap: butt; stroke-linejoin: miter; stroke-miterlimit: 10; fill: rgb(234,26,47); fill-rule: nonzero; opacity: 1;" transform=" matrix(1 0 0 1 0 0) " stroke-linecap="round" />
	<rect x="49.09" y="32.21" rx="0" ry="0" width="12.26" height="11.56" style="stroke: none; stroke-width: 1; stroke-dasharray: none; stroke-linecap: butt; stroke-linejoin: miter; stroke-miterlimit: 10; fill: rgb(253,223,179); fill-rule: nonzero; opacity: 1;" transform=" matrix(1 0 0 1 0 0) "/>
	<rect x="49.09" y="55.33" rx="0" ry="0" width="12.26" height="11.56" style="stroke: none; stroke-width: 1; stroke-dasharray: none; stroke-linecap: butt; stroke-linejoin: miter; stroke-miterlimit: 10; fill: rgb(253,223,179); fill-rule: nonzero; opacity: 1;" transform=" matrix(1 0 0 1 0 0) "/>
	<path d="M 52.7 12.606 c -7.056 -0.302 -13.857 4.609 -19.399 13.279 c 3.418 -1.245 6.157 -1.705 7.776 -0.871 c -0.729 2.384 0.042 5.545 1.771 9.202 c 3.839 -8.986 7.597 -15.51 11.179 -16.716 L 52.7 12.606 z" style="stroke: none; stroke-width: 1; stroke-dasharray: none; stroke-linecap: butt; stroke-linejoin: miter; stroke-miterlimit: 10; fill: rgb(9,137,66); fill-rule: nonzero; opacity: 1;" transform=" matrix(1 0 0 1 0 0) " stroke-linecap="round" />
	<path d="M 56.894 17.211 c 5.161 0.977 4.615 11.658 8.777 16.401 l 3.017 -5.674 c 1.988 1.868 4.365 2.944 7.236 3.018 c -6.143 -6.596 -7.956 -19.094 -19.297 -18.768 L 56.894 17.211 z" style="stroke: none; stroke-width: 1; stroke-dasharray: none; stroke-linecap: butt; stroke-linejoin: miter; stroke-miterlimit: 10; fill: rgb(9,137,66); fill-rule: nonzero; opacity: 1;" transform=" matrix(1 0 0 1 0 0) " stroke-linecap="round" />
	<path d="M 40.869 3.574 c -3.011 3.429 -4.938 7.172 -4.432 11.624 c 3.838 2.903 10.6 2.723 17.591 2.302 l -1.305 -4.895 C 49.569 7.805 45.509 5.039 40.869 3.574 z" style="stroke: none; stroke-width: 1; stroke-dasharray: none; stroke-linecap: butt; stroke-linejoin: miter; stroke-miterlimit: 10; fill: rgb(7,113,54); fill-rule: nonzero; opacity: 1;" transform=" matrix(1 0 0 1 0 0) " stroke-linecap="round" />
	<path d="M 68.364 3.574 c 3.011 3.429 4.938 7.172 4.432 11.624 c -3.838 2.903 -10.6 2.723 -17.591 2.302 l 1.305 -4.895 C 59.665 7.805 63.725 5.039 68.364 3.574 z" style="stroke: none; stroke-width: 1; stroke-dasharray: none; stroke-linecap: butt; stroke-linejoin: miter; stroke-miterlimit: 10; fill: rgb(7,113,54); fill-rule: nonzero; opacity: 1;" transform=" matrix(1 0 0 1 0 0) " stroke-linecap="round" />
	<path d="M 57.693 18.712 h -3.764 c -1.185 0 -2.146 -0.961 -2.146 -2.146 v -3.764 c 0 -1.185 0.961 -2.146 2.146 -2.146 h 3.764 c 1.185 0 2.146 0.961 2.146 2.146 v 3.764 C 59.839 17.752 58.878 18.712 57.693 18.712 z" style="stroke: none; stroke-width: 1; stroke-dasharray: none; stroke-linecap: butt; stroke-linejoin: miter; stroke-miterlimit: 10; fill: rgb(6,99,47); fill-rule: nonzero; opacity: 1;" transform=" matrix(1 0 0 1 0 0) " stroke-linecap="round" />
	<path d="M 37.711 90 c 6.33 0 12.1 -2.523 16.354 -6.613 l -8.77 -8.055 c -2.017 1.81 -4.678 2.915 -7.584 2.915 h 0 L 37.711 90 L 37.711 90 z" style="stroke: none; stroke-width: 1; stroke-dasharray: none; stroke-linecap: butt; stroke-linejoin: miter; stroke-miterlimit: 10; fill: rgb(253,223,179); fill-rule: nonzero; opacity: 1;" transform=" matrix(1 0 0 1 0 0) " stroke-linecap="round" />
	<path d="M 26.331 66.886 H 14.083 c 0.142 6.462 2.91 12.306 7.274 16.501 l 8.307 -8.493 C 27.611 72.836 26.337 70.003 26.331 66.886 z" style="stroke: none; stroke-width: 1; stroke-dasharray: none; stroke-linecap: butt; stroke-linejoin: miter; stroke-miterlimit: 10; fill: rgb(253,223,179); fill-rule: nonzero; opacity: 1;" transform=" matrix(1 0 0 1 0 0) " stroke-linecap="round" />
	<path d="M 26.331 55.327 V 49.47 c 0 -3.37 -2.757 -6.128 -6.128 -6.128 h 0 c -3.37 0 -6.127 2.757 -6.127 6.128 v 5.857 H 26.331 z" style="stroke: none; stroke-width: 1; stroke-dasharray: none; stroke-linecap: butt; stroke-linejoin: miter; stroke-miterlimit: 10; fill: rgb(253,223,179); fill-rule: nonzero; opacity: 1;" transform=" matrix(1 0 0 1 0 0) " stroke-linecap="round" />
</g>
</g>
</svg>